<svg id="Layer_1" data-name="Layer 1" xmlns="http://www.w3.org/2000/svg" viewBox="0 0 283.6 26">
  <defs>
    <style>
      .cls-1 {
        fill: #4d4d4d;
      }

      .cls-2 {
        fill: none;
      }
    </style>
  </defs>
  <title>SABIC-CTM</title>
  <path class="cls-1" d="M7.14,19.09a8.09,8.09,0,0,1-2.73-.46,6.81,6.81,0,0,1-2.27-1.34A6.25,6.25,0,0,1,.58,15.1a7.39,7.39,0,0,1-.58-3,7.72,7.72,0,0,1,.56-3A6.42,6.42,0,0,1,2.08,6.87,6.62,6.62,0,0,1,4.33,5.48,7.85,7.85,0,0,1,7.08,5a9.36,9.36,0,0,1,2.3.23,4.79,4.79,0,0,1,1.41.58,2.2,2.2,0,0,1,.72.7,1.29,1.29,0,0,1,.2.6,1.16,1.16,0,0,1-.11.49,2.06,2.06,0,0,1-.25.42,2.38,2.38,0,0,1-.3.32,1.37,1.37,0,0,1-.27.2A3.8,3.8,0,0,0,10.24,8a4.52,4.52,0,0,0-.81-.47,6.08,6.08,0,0,0-1-.36,5.23,5.23,0,0,0-1.27-.15,5,5,0,0,0-1.85.34,4.14,4.14,0,0,0-1.48,1,4.76,4.76,0,0,0-1,1.58,5.74,5.74,0,0,0-.36,2.1,5.4,5.4,0,0,0,.38,2.1,4.32,4.32,0,0,0,1,1.52,4.38,4.38,0,0,0,1.56.93,5.84,5.84,0,0,0,1.93.31,6.4,6.4,0,0,0,2.12-.31,6.14,6.14,0,0,0,1.3-.59l1,1.78a6.32,6.32,0,0,1-.6.37,5.68,5.68,0,0,1-1,.41,9.27,9.27,0,0,1-1.36.33A10.41,10.41,0,0,1,7.14,19.09Z"/>
  <path class="cls-1" d="M13.54,6.42a1,1,0,0,1,.33-.81,1.4,1.4,0,0,1,.9-.26,2.28,2.28,0,0,1,.68.1l.41.14v5.13h6.87V6.42a1,1,0,0,1,.32-.81,1.36,1.36,0,0,1,.89-.26,2.35,2.35,0,0,1,.7.1,2.3,2.3,0,0,1,.41.16V18.74H22.73v-5.9H15.87v5.89H13.54Z"/>
  <path class="cls-1" d="M31.44,18.74a10.19,10.19,0,0,1-1.8-.13,2,2,0,0,1-1-.48,1.78,1.78,0,0,1-.48-1A9.38,9.38,0,0,1,28,15.48V6.68q0-1.33,1.42-1.33H37q1.17,0,1.17,1a1.86,1.86,0,0,1-.12.67,3.13,3.13,0,0,1-.18.4H30.37v3.36h6.28q1.15,0,1.15,1a2,2,0,0,1-.11.67,1.57,1.57,0,0,1-.19.4H30.37v2.56a1.27,1.27,0,0,0,.21.9,1.33,1.33,0,0,0,.86.2H38v2.13Z"/>
  <path class="cls-1" d="M41.39,7.28a2.21,2.21,0,0,1,.52-1.47A1.48,1.48,0,0,1,43,5.35a1.6,1.6,0,0,1,1.12.42A4.56,4.56,0,0,1,45,7.09l3.18,6.42,3.26-6.64a3.51,3.51,0,0,1,.82-1.18,1.65,1.65,0,0,1,2.11.08,2.5,2.5,0,0,1,.52,1.63l.64,11.34H53.28l-.57-9.88L49.1,16.12H47.19L43.58,9l-.53,9.82h-2.3Z"/>
  <path class="cls-1" d="M58.33,6.42a1,1,0,0,1,.33-.81,1.41,1.41,0,0,1,.9-.26,2.28,2.28,0,0,1,.68.1l.41.14V18.74H58.33Z"/>
  <path class="cls-1" d="M63.93,15.67a5.37,5.37,0,0,0,.64.38,8.28,8.28,0,0,0,1.06.45,10,10,0,0,0,1.44.38,9.31,9.31,0,0,0,1.77.16,4.47,4.47,0,0,0,2.43-.5,1.76,1.76,0,0,0,.57-2.18,1.53,1.53,0,0,0-.49-.54,2.72,2.72,0,0,0-.78-.36,8.79,8.79,0,0,0-1-.23l-2.15-.39a9,9,0,0,1-1.58-.41,4.93,4.93,0,0,1-1.35-.72,3.4,3.4,0,0,1-.94-1.1A3.28,3.28,0,0,1,63.2,9a4.09,4.09,0,0,1,.3-1.56,3.24,3.24,0,0,1,1-1.29,5,5,0,0,1,1.68-.87A8.19,8.19,0,0,1,68.58,5a12.56,12.56,0,0,1,1.83.12,9.57,9.57,0,0,1,1.33.28,5.09,5.09,0,0,1,.88.34l.49.27a2.23,2.23,0,0,1,.51.47.94.94,0,0,1,.2.59,1.39,1.39,0,0,1-.27.83,2.15,2.15,0,0,1-.51.54A2.81,2.81,0,0,0,72.48,8a5.26,5.26,0,0,0-.94-.46,8.52,8.52,0,0,0-1.3-.37A7.87,7.87,0,0,0,68.62,7a6.73,6.73,0,0,0-1.47.14,2.73,2.73,0,0,0-.95.38,1.44,1.44,0,0,0-.51.59,1.83,1.83,0,0,0-.16.77A1.36,1.36,0,0,0,66.11,10a5,5,0,0,0,1.92.67l2.19.41a7,7,0,0,1,3.2,1.28A3.14,3.14,0,0,1,74.49,15a3.76,3.76,0,0,1-.37,1.69A3.68,3.68,0,0,1,73,18a5.12,5.12,0,0,1-1.78.84,9.26,9.26,0,0,1-2.45.29,11.53,11.53,0,0,1-2.15-.19,12.45,12.45,0,0,1-1.74-.45,8.74,8.74,0,0,1-1.27-.54,7.8,7.8,0,0,1-.74-.43Z"/>
  <path class="cls-1" d="M79.9,7.48H76q-1.15,0-1.15-1A1.85,1.85,0,0,1,75,5.76a3.16,3.16,0,0,1,.18-.4H86.28q1.15,0,1.15,1a2,2,0,0,1-.11.67,1.55,1.55,0,0,1-.19.4H82.21V18.74H79.89Z"/>
  <path class="cls-1" d="M88.56,7.36a4.09,4.09,0,0,1,.1-1A1.21,1.21,0,0,1,89,5.75a1.46,1.46,0,0,1,.68-.32,5.31,5.31,0,0,1,1.12-.1h2.07A8,8,0,0,1,97.6,6.47a3.66,3.66,0,0,1,1.55,3.11,3.86,3.86,0,0,1-.6,2.15,4.13,4.13,0,0,1-1.94,1.48l3.18,5.5H97.1l-2.73-4.92H91.69l-.87-.09v5H88.56Zm4.49,4.55a7.92,7.92,0,0,0,1.77-.17A3.24,3.24,0,0,0,96,11.26a1.81,1.81,0,0,0,.62-.72,2.2,2.2,0,0,0,.19-.92,2.08,2.08,0,0,0-.2-.89A1.87,1.87,0,0,0,96,8a3.51,3.51,0,0,0-1.17-.5A7.49,7.49,0,0,0,93,7.31H90.82v4.43l.76.1A13.73,13.73,0,0,0,93.05,11.91Z"/>
  <path class="cls-1" d="M105.28,13.76l-4.12-5.5a12.53,12.53,0,0,1-.77-1.1,1.65,1.65,0,0,1-.26-.85.86.86,0,0,1,.32-.68,1.15,1.15,0,0,1,.77-.27,2.57,2.57,0,0,1,.49,0,1.79,1.79,0,0,1,.37.12l4.41,6.17,3.45-5.19a3.26,3.26,0,0,1,.77-.88,1.58,1.58,0,0,1,.93-.25,1.71,1.71,0,0,1,.84.19,1.76,1.76,0,0,1,.51.4l-5.39,7.83v5h-2.32Z"/>
  <path class="cls-1" d="M123.28,7.48h-3.9q-1.15,0-1.15-1a1.85,1.85,0,0,1,.12-.67,3.15,3.15,0,0,1,.18-.4h11.14q1.15,0,1.15,1a2,2,0,0,1-.11.67,1.55,1.55,0,0,1-.19.4H125.6V18.74h-2.32Z"/>
  <path class="cls-1" d="M132.28,6.42a1,1,0,0,1,.33-.81,1.41,1.41,0,0,1,.9-.26,2.28,2.28,0,0,1,.68.1l.41.14v5.13h6.87V6.42a1,1,0,0,1,.32-.81,1.36,1.36,0,0,1,.89-.26,2.35,2.35,0,0,1,.7.1,2.3,2.3,0,0,1,.41.16V18.74h-2.32v-5.9h-6.89v5.89h-2.3Z"/>
  <path class="cls-1" d="M150.28,6.83a4,4,0,0,1,.89-1.45,1.85,1.85,0,0,1,2.24,0,4,4,0,0,1,.89,1.45l5,11.9h-2.62l-1.37-3.49h-6.23l-1.39,3.49h-2.41Zm4.25,6.36-2.25-5.83L150,13.2Z"/>
  <path class="cls-1" d="M163,7.48h-3.9q-1.15,0-1.15-1a1.85,1.85,0,0,1,.12-.67,3.09,3.09,0,0,1,.18-.4h11.14q1.15,0,1.15,1a2,2,0,0,1-.11.67,1.55,1.55,0,0,1-.19.4h-4.92V18.74H163Z"/>
  <path class="cls-1" d="M177.93,7.28a2.21,2.21,0,0,1,.52-1.47,1.48,1.48,0,0,1,1.08-.46,1.6,1.6,0,0,1,1.12.42,4.57,4.57,0,0,1,.91,1.32l3.18,6.42L188,6.87a3.51,3.51,0,0,1,.83-1.18,1.65,1.65,0,0,1,2.11.08,2.5,2.5,0,0,1,.52,1.63l.64,11.34h-2.28l-.54-9.88-3.61,7.26h-1.91L180.12,9l-.53,9.82h-2.31Z"/>
  <path class="cls-1" d="M198.56,6.83a4,4,0,0,1,.89-1.45,1.85,1.85,0,0,1,2.24,0,4,4,0,0,1,.89,1.45l5,11.9H205l-1.37-3.49h-6.23L196,18.73h-2.46Zm4.25,6.36-2.3-5.84-2.32,5.84Z"/>
  <path class="cls-1" d="M211.28,7.48h-3.9q-1.15,0-1.15-1a1.86,1.86,0,0,1,.12-.67,3.12,3.12,0,0,1,.18-.4h11.14q1.15,0,1.15,1a2,2,0,0,1-.11.67,1.56,1.56,0,0,1-.19.4H213.6V18.74h-2.32Z"/>
  <path class="cls-1" d="M225.28,7.48h-3.9q-1.15,0-1.15-1a1.85,1.85,0,0,1,.12-.67,3.11,3.11,0,0,1,.18-.4h11.14q1.15,0,1.15,1a2,2,0,0,1-.11.67,1.55,1.55,0,0,1-.19.4H227.6V18.74h-2.32Z"/>
  <path class="cls-1" d="M237.73,18.74a10.19,10.19,0,0,1-1.8-.13,2,2,0,0,1-1-.48,1.78,1.78,0,0,1-.48-1,9.38,9.38,0,0,1-.12-1.65V6.68q0-1.33,1.42-1.33h7.49q1.17,0,1.17,1a1.85,1.85,0,0,1-.12.67,3.12,3.12,0,0,1-.18.4h-7.44v3.36H243q1.15,0,1.15,1a2,2,0,0,1-.11.67,1.57,1.57,0,0,1-.19.4h-7.14v2.56a1.27,1.27,0,0,0,.21.9,1.33,1.33,0,0,0,.86.2h6.55v2.13Z"/>
  <path class="cls-1" d="M247.14,7.36a4.1,4.1,0,0,1,.1-1,1.21,1.21,0,0,1,.34-.61,1.46,1.46,0,0,1,.68-.32,5.31,5.31,0,0,1,1.12-.1h2.07a8,8,0,0,1,4.73,1.14,3.66,3.66,0,0,1,1.55,3.11,3.86,3.86,0,0,1-.6,2.15,4.13,4.13,0,0,1-1.94,1.48l3.18,5.5h-2.69L253,13.79h-2.68l-.87-.09v5h-2.26Zm4.49,4.55a7.93,7.93,0,0,0,1.77-.17,3.24,3.24,0,0,0,1.15-.48,1.81,1.81,0,0,0,.62-.72,2.2,2.2,0,0,0,.19-.92,2.08,2.08,0,0,0-.2-.89,1.87,1.87,0,0,0-.63-.73,3.51,3.51,0,0,0-1.17-.5,7.5,7.5,0,0,0-1.81-.19H249.4v4.43l.76.1a13.73,13.73,0,0,0,1.47.07Z"/>
  <path class="cls-1" d="M260.88,15.67a5.34,5.34,0,0,0,.64.38,8.26,8.26,0,0,0,1.06.45,10,10,0,0,0,1.44.38,9.31,9.31,0,0,0,1.77.16,4.47,4.47,0,0,0,2.43-.5,1.76,1.76,0,0,0,.57-2.18,1.53,1.53,0,0,0-.49-.54,2.72,2.72,0,0,0-.78-.36,8.78,8.78,0,0,0-1-.23l-2.15-.39a9,9,0,0,1-1.58-.41,4.93,4.93,0,0,1-1.35-.72,3.4,3.4,0,0,1-.94-1.1A3.28,3.28,0,0,1,260.15,9a4.09,4.09,0,0,1,.3-1.56,3.24,3.24,0,0,1,1-1.29,5,5,0,0,1,1.68-.87A8.2,8.2,0,0,1,265.59,5a12.56,12.56,0,0,1,1.83.12,9.55,9.55,0,0,1,1.33.28,5.09,5.09,0,0,1,.88.34l.49.27a2.23,2.23,0,0,1,.51.47.94.94,0,0,1,.2.59,1.39,1.39,0,0,1-.27.83,2.15,2.15,0,0,1-.51.54,2.81,2.81,0,0,0-.56-.44,5.25,5.25,0,0,0-.94-.46,8.51,8.51,0,0,0-1.3-.37A7.87,7.87,0,0,0,265.63,7a6.72,6.72,0,0,0-1.47.14,2.73,2.73,0,0,0-1,.38,1.45,1.45,0,0,0-.51.59,1.83,1.83,0,0,0-.16.77,1.36,1.36,0,0,0,.58,1.16,5,5,0,0,0,1.92.67l2.19.41a7,7,0,0,1,3.2,1.28,3.14,3.14,0,0,1,1,2.56,3.76,3.76,0,0,1-.37,1.69A3.68,3.68,0,0,1,270,18a5.12,5.12,0,0,1-1.78.84,9.26,9.26,0,0,1-2.45.29,11.53,11.53,0,0,1-2.15-.19,12.43,12.43,0,0,1-1.74-.45,8.73,8.73,0,0,1-1.27-.54,7.8,7.8,0,0,1-.74-.43Z"/>
  <path class="cls-1" d="M276.19,6.64H275.1a.37.37,0,0,1-.41-.4.64.64,0,0,1,0-.24l.07-.16h3.38q.4,0,.4.38a.71.71,0,0,1,0,.25l-.06.17h-1.4V10h-.89Zm2.9-.19a.71.71,0,0,1,.19-.48.48.48,0,0,1,.36-.13A.53.53,0,0,1,280,6a1.42,1.42,0,0,1,.29.41l1,1.86,1-1.86a1.61,1.61,0,0,1,.28-.41.54.54,0,0,1,.68,0,.69.69,0,0,1,.16.47l.19,3.47h-.88l-.13-2.55-.93,1.79H281L280,7.34,279.78,10h-.88Z"/>
  <rect class="cls-2" width="283.6" height="26"/>
</svg>
